<svg xmlns="http://www.w3.org/2000/svg" xmlns:xlink="http://www.w3.org/1999/xlink" width="500" zoomAndPan="magnify" viewBox="0 0 375 374.999991" height="500" preserveAspectRatio="xMidYMid meet" version="1.0"><defs><g/><clipPath id="b1c1465cb4"><path d="M 151.023438 112.5 L 223.773438 112.5 L 223.773438 215.25 L 151.023438 215.25 Z M 151.023438 112.5 " clip-rule="nonzero"/></clipPath></defs><rect x="-37.5" width="450" fill="#ffffff" y="-37.499999" height="449.999989" fill-opacity="1"/><rect x="-37.5" width="450" fill="#ffffff" y="-37.499999" height="449.999989" fill-opacity="1"/><g clip-path="url(#b1c1465cb4)"><path fill="#ecad4c" d="M 161.585938 189.941406 C 154.511719 182.863281 151.027344 174.371094 151.136719 164.464844 C 151.136719 154.339844 154.726562 145.738281 162.023438 138.441406 L 187.933594 112.53125 L 213.410156 138.007812 C 220.488281 145.195312 223.972656 153.6875 223.863281 163.59375 C 223.753906 173.71875 220.160156 182.320312 212.976562 189.503906 L 206.441406 195.929688 L 169.96875 159.457031 C 169.535156 160.980469 169.316406 162.613281 169.316406 164.246094 C 169.316406 169.253906 171.058594 173.5 174.542969 176.984375 L 187.0625 189.503906 C 194.21875 196.660156 194.21875 208.261719 187.0625 215.417969 Z M 205.136719 168.601562 C 205.460938 167.078125 205.679688 165.554688 205.679688 163.921875 C 205.679688 158.804688 203.9375 154.558594 200.453125 150.964844 L 187.714844 138.226562 L 181.183594 144.757812 L 205.136719 168.601562 " fill-opacity="1" fill-rule="nonzero"/></g><g fill="#ecad4c" fill-opacity="1"><g transform="translate(155.233584, 251.880219)"><g><path d="M 12.03125 -13.109375 C 12.03125 -12.859375 11.90625 -12.734375 11.65625 -12.734375 L 4.578125 -12.734375 C 4.484375 -12.734375 4.4375 -12.691406 4.4375 -12.609375 L 4.4375 -9.234375 C 4.4375 -9.148438 4.484375 -9.109375 4.578125 -9.109375 L 9.171875 -9.109375 C 9.421875 -9.109375 9.546875 -8.984375 9.546875 -8.734375 L 9.546875 -6.8125 C 9.546875 -6.570312 9.421875 -6.453125 9.171875 -6.453125 L 4.578125 -6.453125 C 4.484375 -6.453125 4.4375 -6.40625 4.4375 -6.3125 L 4.4375 -2.796875 C 4.4375 -2.703125 4.484375 -2.65625 4.578125 -2.65625 L 11.65625 -2.65625 C 11.90625 -2.65625 12.03125 -2.53125 12.03125 -2.28125 L 12.03125 -0.375 C 12.03125 -0.125 11.90625 0 11.65625 0 L 1.71875 0 C 1.46875 0 1.34375 -0.125 1.34375 -0.375 L 1.34375 -15.03125 C 1.34375 -15.28125 1.46875 -15.40625 1.71875 -15.40625 L 11.65625 -15.40625 C 11.90625 -15.40625 12.03125 -15.28125 12.03125 -15.03125 Z M 12.03125 -13.109375 "/></g></g></g><g fill="#ecad4c" fill-opacity="1"><g transform="translate(174.679282, 251.880219)"><g><path d="M 1.71875 0 C 1.46875 0 1.34375 -0.125 1.34375 -0.375 L 1.34375 -15.03125 C 1.34375 -15.28125 1.46875 -15.40625 1.71875 -15.40625 L 7.109375 -15.40625 C 8.203125 -15.40625 9.160156 -15.207031 9.984375 -14.8125 C 10.816406 -14.425781 11.460938 -13.878906 11.921875 -13.171875 C 12.378906 -12.472656 12.609375 -11.660156 12.609375 -10.734375 L 12.609375 -4.65625 C 12.609375 -3.738281 12.378906 -2.925781 11.921875 -2.21875 C 11.460938 -1.519531 10.816406 -0.972656 9.984375 -0.578125 C 9.160156 -0.191406 8.203125 0 7.109375 0 Z M 4.4375 -2.796875 C 4.4375 -2.703125 4.484375 -2.65625 4.578125 -2.65625 L 7.21875 -2.65625 C 7.894531 -2.65625 8.441406 -2.882812 8.859375 -3.34375 C 9.273438 -3.800781 9.488281 -4.410156 9.5 -5.171875 L 9.5 -10.234375 C 9.5 -10.992188 9.289062 -11.597656 8.875 -12.046875 C 8.457031 -12.503906 7.894531 -12.734375 7.1875 -12.734375 L 4.578125 -12.734375 C 4.484375 -12.734375 4.4375 -12.691406 4.4375 -12.609375 Z M 4.4375 -2.796875 "/></g></g></g><g fill="#ecad4c" fill-opacity="1"><g transform="translate(194.872851, 251.880219)"><g><path d="M 9.875 0 C 9.6875 0 9.539062 -0.09375 9.4375 -0.28125 L 6.734375 -6.265625 C 6.703125 -6.335938 6.648438 -6.375 6.578125 -6.375 L 4.578125 -6.375 C 4.484375 -6.375 4.4375 -6.332031 4.4375 -6.25 L 4.4375 -0.375 C 4.4375 -0.125 4.3125 0 4.0625 0 L 1.71875 0 C 1.46875 0 1.34375 -0.125 1.34375 -0.375 L 1.34375 -15.046875 C 1.34375 -15.296875 1.46875 -15.421875 1.71875 -15.421875 L 7.890625 -15.421875 C 8.835938 -15.421875 9.664062 -15.222656 10.375 -14.828125 C 11.082031 -14.441406 11.628906 -13.894531 12.015625 -13.1875 C 12.410156 -12.488281 12.609375 -11.6875 12.609375 -10.78125 C 12.609375 -9.78125 12.359375 -8.921875 11.859375 -8.203125 C 11.359375 -7.484375 10.671875 -6.976562 9.796875 -6.6875 C 9.742188 -6.675781 9.710938 -6.648438 9.703125 -6.609375 C 9.691406 -6.578125 9.695312 -6.546875 9.71875 -6.515625 L 12.625 -0.4375 C 12.664062 -0.382812 12.6875 -0.316406 12.6875 -0.234375 C 12.6875 -0.160156 12.65625 -0.101562 12.59375 -0.0625 C 12.539062 -0.0195312 12.460938 0 12.359375 0 Z M 4.578125 -12.734375 C 4.484375 -12.734375 4.4375 -12.691406 4.4375 -12.609375 L 4.4375 -8.90625 C 4.4375 -8.820312 4.484375 -8.78125 4.578125 -8.78125 L 7.4375 -8.78125 C 8.050781 -8.78125 8.550781 -8.957031 8.9375 -9.3125 C 9.332031 -9.675781 9.53125 -10.148438 9.53125 -10.734375 C 9.53125 -11.316406 9.332031 -11.796875 8.9375 -12.171875 C 8.550781 -12.546875 8.050781 -12.734375 7.4375 -12.734375 Z M 4.578125 -12.734375 "/></g></g></g><g fill="#ecad4c" fill-opacity="1"><g transform="translate(214.97844, 251.880219)"><g><path d="M 5.609375 -0.015625 C 5.359375 -0.015625 5.234375 -0.140625 5.234375 -0.390625 L 5.234375 -5.828125 L 5.1875 -6 L 0.75 -14.953125 C 0.707031 -15.023438 0.6875 -15.09375 0.6875 -15.15625 C 0.6875 -15.226562 0.710938 -15.285156 0.765625 -15.328125 C 0.828125 -15.378906 0.910156 -15.40625 1.015625 -15.40625 L 3.5625 -15.40625 C 3.769531 -15.40625 3.914062 -15.304688 4 -15.109375 L 6.6875 -9.390625 C 6.71875 -9.347656 6.75 -9.328125 6.78125 -9.328125 C 6.820312 -9.328125 6.847656 -9.347656 6.859375 -9.390625 L 9.546875 -15.109375 C 9.648438 -15.304688 9.796875 -15.40625 9.984375 -15.40625 L 12.5625 -15.40625 C 12.78125 -15.40625 12.890625 -15.316406 12.890625 -15.140625 C 12.890625 -15.066406 12.875 -15.003906 12.84375 -14.953125 L 8.359375 -6 L 8.3125 -5.828125 L 8.3125 -0.390625 C 8.3125 -0.140625 8.1875 -0.015625 7.9375 -0.015625 Z M 5.609375 -0.015625 "/></g></g></g></svg>